<svg width="94" height="45" viewBox="0 0 94 45" fill="none" xmlns="http://www.w3.org/2000/svg">
<path d="M0 43.8132V21.1344H8.86C10.6036 21.0904 12.3372 21.4102 13.95 22.0735C15.2814 22.6384 16.4133 23.5882 17.2 24.8009C17.9404 26.0902 18.33 27.5506 18.33 29.037C18.33 30.5234 17.9404 31.9838 17.2 33.273C16.4078 34.4809 15.2776 35.4294 13.95 36.0005C12.3408 36.6771 10.6051 37.0007 8.86 36.9496H1.79L3.25 35.431V43.8232L0 43.8132ZM3.25 35.7407L1.79 34.1223H8.79C10.4703 34.243 12.14 33.773 13.51 32.7935C14.0182 32.3084 14.4228 31.7254 14.6991 31.0798C14.9755 30.4341 15.118 29.7392 15.118 29.037C15.118 28.3348 14.9755 27.6398 14.6991 26.9942C14.4228 26.3485 14.0182 25.7656 13.51 25.2805C12.1413 24.2975 10.4715 23.8238 8.79 23.9417H1.79L3.25 22.3233V35.7407Z" fill="#FF1F66"/>
<path d="M28.58 44.0131C26.9769 44.0386 25.3949 43.646 23.99 42.8741C22.6639 42.1383 21.5616 41.0578 20.8 39.747C20.008 38.3718 19.6036 36.8078 19.63 35.2213C19.5994 33.6374 20.0041 32.0755 20.8 30.7055C21.5674 29.4104 22.6646 28.3417 23.98 27.6084C25.3876 26.8352 26.9741 26.4458 28.58 26.4794C30.1796 26.4524 31.7596 26.8341 33.17 27.5884C34.4981 28.3046 35.5995 29.3773 36.35 30.6855C37.1045 32.0803 37.4995 33.6408 37.4995 35.2263C37.4995 36.8117 37.1045 38.3722 36.35 39.767C35.5968 41.0757 34.4963 42.1509 33.17 42.8741C31.7657 43.6473 30.1833 44.04 28.58 44.0131ZM28.58 41.2856C29.6275 41.3051 30.6618 41.0502 31.58 40.5463C32.4449 40.0435 33.1489 39.3055 33.61 38.4183C34.1267 37.4332 34.3848 36.3332 34.36 35.2213C34.3884 34.1122 34.1301 33.0145 33.61 32.0342C33.1365 31.1564 32.4218 30.432 31.55 29.9462C30.641 29.4548 29.6237 29.1974 28.59 29.1974C27.5564 29.1974 26.5391 29.4548 25.63 29.9462C24.7621 30.4403 24.0463 31.1624 23.56 32.0342C23.0208 33.0083 22.7515 34.1085 22.78 35.2213C22.755 36.3368 23.024 37.4394 23.56 38.4183C24.0421 39.3036 24.7581 40.0396 25.63 40.5463C26.5318 41.0461 27.5489 41.301 28.58 41.2856Z" fill="#FF1F66"/>
<path d="M40.46 43.8133V19.7657H43.57V43.8133H40.46Z" fill="#FF1F66"/>
<path d="M48.15 43.8133V19.7657H51.26V43.8133H48.15Z" fill="#FF1F66"/>
<path d="M24.55 35.1213L27.19 38.1185L32.84 32.3739" stroke="#FF1F66" stroke-miterlimit="10"/>
<path opacity="0.4" d="M70.83 32.4739C79.2579 32.4739 86.09 25.6481 86.09 17.2281C86.09 8.80806 79.2579 1.9823 70.83 1.9823C62.4021 1.9823 55.57 8.80806 55.57 17.2281C55.57 25.6481 62.4021 32.4739 70.83 32.4739Z" stroke="#04395E" stroke-width="2" stroke-miterlimit="10"/>
<path d="M55.88 20.7248C54.21 12.4725 59.31 4.00037 67.57 2.34192" stroke="#04395E" stroke-width="4" stroke-miterlimit="10" stroke-linecap="round"/>
<path d="M93.54 7.73694H63.39V13.9312H93.54V7.73694Z" fill="#04395E"/>
<path d="M70.55 18.6267H63.39V44.003H70.55V18.6267Z" fill="#04395E"/>
<path d="M81.98 13.9312H74.82V44.0131H81.98V13.9312Z" fill="#04395E"/>
</svg>
