<svg id="Layer_1" data-name="Layer 1" xmlns="http://www.w3.org/2000/svg" viewBox="0 0 658.96 427.9"><defs><style>.cls-1,.cls-2,.cls-4,.cls-5,.cls-7,.cls-8{fill:none;}.cls-1,.cls-2,.cls-4,.cls-5,.cls-6,.cls-7{stroke:#fff;}.cls-1,.cls-2,.cls-5,.cls-6,.cls-7{stroke-miterlimit:10;}.cls-2{stroke-width:0.75px;}.cls-3,.cls-6{fill:#fff;}.cls-4{stroke-linecap:round;stroke-linejoin:round;stroke-width:2px;}.cls-5{stroke-width:0.5px;}.cls-7{stroke-width:0.65px;}</style></defs><path class="cls-1" d="M512.66,392.07l-209-62.59v7.94l209,65.22Z" transform="translate(-42.26 -27.43)"/><path class="cls-1" d="M564.59,381l-51.93,11v10.57l51.93-10.8Z" transform="translate(-42.26 -27.43)"/><path class="cls-1" d="M303.61,329.48l38.74-1.75L564.59,381" transform="translate(-42.26 -27.43)"/><path class="cls-1" d="M536,374,486.8,384.44" transform="translate(-42.26 -27.43)"/><path class="cls-1" d="M520.84,370.41l-47.14,10" transform="translate(-42.26 -27.43)"/><path class="cls-1" d="M503.6,366.42,460,376.29" transform="translate(-42.26 -27.43)"/><path class="cls-1" d="M488.05,362.49,442.8,371" transform="translate(-42.26 -27.43)"/><path class="cls-1" d="M471.92,359c-10.87,2.37-27.72,5.24-41.88,8.33" transform="translate(-42.26 -27.43)"/><path class="cls-1" d="M453.51,354.39l-37.3,8.94" transform="translate(-42.26 -27.43)"/><path class="cls-1" d="M438.51,350.8l-37.05,8.07" transform="translate(-42.26 -27.43)"/><path class="cls-1" d="M427,348l-39.15,6.63" transform="translate(-42.26 -27.43)"/><path class="cls-1" d="M412.58,344.57l-38.17,6.11" transform="translate(-42.26 -27.43)"/><path class="cls-1" d="M396.44,340.76c-16.19,1-24.4,3.32-40.59,4.31" transform="translate(-42.26 -27.43)"/><path class="cls-1" d="M379.32,336.6c-13.27.93-25.94,2.94-39.28,3.8" transform="translate(-42.26 -27.43)"/><path class="cls-1" d="M364.11,333l-43.4,1.66" transform="translate(-42.26 -27.43)"/><path class="cls-1" d="M549.56,377.43l-50.23,10.63" transform="translate(-42.26 -27.43)"/><path class="cls-2" d="M321.43,328.68,533.8,387.91" transform="translate(-42.26 -27.43)"/><path class="cls-2" d="M547.59,384.66l-215-56.26" transform="translate(-42.26 -27.43)"/><path class="cls-1" d="M285.75,57,274.53,406.11,122,320.52l34.54-82.42,9.69-20.43-25.09-.55-4.62,2.77-9.9,26.69-7.92,23.9-6.6,19.46,5.27-182.33Z" transform="translate(-42.26 -27.43)"/><path class="cls-1" d="M285.75,57h21.79V168.2l-4,141.2-4,93.94-25.1,2.77" transform="translate(-42.26 -27.43)"/><path class="cls-1" d="M112.14,289.94c-2.43,5-14.32,39.43-14.32,39.43s-7.92,27.05-9.23,35.57-11.38,38.92,9.23,46.32,29.5,6.3,37,5.56S249.67,409,249.67,409L217.1,390.11S115,387.89,110.15,392s-7.93,7.42-7.93,10.38-11-3,4-39.27S122,320.48,122,320.48" transform="translate(-42.26 -27.43)"/><path class="cls-1" d="M131.78,326l-22.5,50.84S102,394,103.59,398.58" transform="translate(-42.26 -27.43)"/><path class="cls-3" d="M127.32,317.73l10,5.39-.08.15Z" transform="translate(-42.26 -27.43)"/><path class="cls-3" d="M141.15,325.17l9.51,5.13-.19.36L141,325.38Z" transform="translate(-42.26 -27.43)"/><path class="cls-3" d="M162.08,336.45l17.14,9.22-.44.78-17-9.49Z" transform="translate(-42.26 -27.43)"/><path class="cls-3" d="M186.82,349.79l22.77,12.4-.53,1-22.71-12.52Z" transform="translate(-42.26 -27.43)"/><path class="cls-3" d="M213.38,364.26l9.5,5.18-.57,1-9.46-5.22Z" transform="translate(-42.26 -27.43)"/><path class="cls-3" d="M234.28,375.65l17.08,9.3-.65,1.18-17-9.4Z" transform="translate(-42.26 -27.43)"/><path class="cls-3" d="M258.94,389.09l10,5.45-1.06.6.31-11.39,1.51.06-.37,11.37,0,1.2-1-.57-10-5.51Z" transform="translate(-42.26 -27.43)"/><path class="cls-3" d="M268.27,380.28l.25-8.71,1.57.05-.28,8.7Z" transform="translate(-42.26 -27.43)"/><path class="cls-3" d="M268.8,361.13l.42-15.67,1.71.06-.52,15.66Z" transform="translate(-42.26 -27.43)"/><path class="cls-3" d="M269.41,338.5l.57-20.88,1.86.05-.69,20.88Z" transform="translate(-42.26 -27.43)"/><path class="cls-3" d="M270.33,305.41l-.25,8.71,1.87.06.26-8.71Z" transform="translate(-42.26 -27.43)"/><path class="cls-3" d="M270.66,295l.51-15.66,1.75,0-.42,15.68Z" transform="translate(-42.26 -27.43)"/><path class="cls-3" d="M271.4,272.36l.68-20.88,1.59,0-.56,20.9Z" transform="translate(-42.26 -27.43)"/><path class="cls-3" d="M272.2,248l.26-8.7,1.54,0-.23,8.71Z" transform="translate(-42.26 -27.43)"/><path class="cls-3" d="M272.8,228.85l.52-15.66,1.4,0-.44,15.66Z" transform="translate(-42.26 -27.43)"/><path class="cls-3" d="M273.54,206.22l.67-20.88,1.27,0-.57,20.88Z" transform="translate(-42.26 -27.43)"/><path class="cls-3" d="M274.32,181.87l.28-8.71,1.2,0-.23,8.69Z" transform="translate(-42.26 -27.43)"/><path class="cls-3" d="M275,162.72l.51-15.67,1.06,0-.44,15.66Z" transform="translate(-42.26 -27.43)"/><path class="cls-3" d="M275.68,140.09l.71-20.88.85,0-.53,20.9Z" transform="translate(-42.26 -27.43)"/><path class="cls-3" d="M276.52,115.73l.32-8.71.67,0-.19,8.71Z" transform="translate(-42.26 -27.43)"/><path class="cls-3" d="M277.24,96.58l.57-15.66.28,0-.36,15.66Z" transform="translate(-42.26 -27.43)"/><path class="cls-3" d="M278.07,74l.42-11.39L278.24,74Z" transform="translate(-42.26 -27.43)"/><path class="cls-1" d="M274,213.87l-.4,15" transform="translate(-42.26 -27.43)"/><path class="cls-4" d="M357.17,320l291.17,70.23S533.9,362.59,305.05,307.35" transform="translate(-42.26 -27.43)"/><path class="cls-4" d="M43.26,330.68l55.4-10.6" transform="translate(-42.26 -27.43)"/><path class="cls-3" d="M622.54,392c5.25,4.73,7.81,14.22,1.89,19.48-8.34,6.81-19.24,8.14-28.95,12.11a35.54,35.54,0,0,1-12.34-.4A38.55,38.55,0,0,1,571.27,420c-4-2.13-4.34-7.4-3.24-11.39,1.42-4,4.72-6.78,7.85-9.4,8-6.49,17.34-11.86,28-12.09,6.45-.53,13.62.23,18.66,4.79Zm-3.06,3.13c-4-4.19-10-5-15.58-5.18-10.14-.74-19.68,3.46-27.64,9.8-4.54,3.6-9.48,8.77-7.78,15,1.25,6.49,9.48,6.45,14.85,7.5a31,31,0,0,0,11.92-.1l11.11-4.84C616.37,413,629.85,407.46,619.48,395.14Z" transform="translate(-42.26 -27.43)"/><path class="cls-3" d="M625.42,403a5.52,5.52,0,0,1-3.89,1.31,14.36,14.36,0,0,0-9.9,3.8c-3.48,2.71-8.7,6.89-12.17,9.49-5,3.68-11.37,2.34-17.06,1.63a58.59,58.59,0,0,1-13.71-3.66,2.56,2.56,0,0,1-.79-.88,2.47,2.47,0,0,1-.33-1.13h.7a1.75,1.75,0,0,0,.3.75,1.7,1.7,0,0,0,.61.52,14.79,14.79,0,0,0,3.64.95,97,97,0,0,0,17.67,1.55,10.69,10.69,0,0,0,7.36-2.54l2.29-1.9,3.06-2.56c4.3-3.3,8.23-8,13.86-9.13,2.92-.42,6.14-1.58,8.38,1.25l-.1.71Z" transform="translate(-42.26 -27.43)"/><path class="cls-3" d="M587.9,391.61c4.47-1.9,9.7-3.79,14.61-2.62A8.8,8.8,0,0,1,608,402.64L607.8,401a7.82,7.82,0,0,1,1.16,7.12h-.74a8.31,8.31,0,0,0-2.6-5.17l-.6-.53.43-1.12c2.7-7.4-4.11-10-10.33-9.28-2.31,0-4.65.25-7,.38l-.17-.72Z" transform="translate(-42.26 -27.43)"/><path class="cls-3" d="M594.66,395.48c.21.16.18.38.27.54a1.84,1.84,0,0,1,.47.72,1.88,1.88,0,0,1,.1.85c-2.77,6.63-9.48,10.61-15.81,13.18l-.42.17-.13-.42c-1.31-6.21,6.63-13.86,12.07-15.68C592.33,394.55,593.93,394.33,594.66,395.48Zm-.83.23c0,.4-.09.19-.32.31a15.58,15.58,0,0,0-4.23,1.55c-4.06,2.6-9.48,7.48-9.35,12.63l-.55-.25c5.92-2,9.64-7.29,12.14-12.74l.53-1.1a1.6,1.6,0,0,1,1.08-.55h.42a.34.34,0,0,0,.1.16.4.4,0,0,0,.18.07Z" transform="translate(-42.26 -27.43)"/><path class="cls-3" d="M590.7,399.6c.44,3.06-5.12,9.49-8.36,7.6a2.13,2.13,0,0,1-.55-1.11,2.16,2.16,0,0,1,.15-1.23c.34-1.9,8.12-10,8.76-5.2Zm-.85-.15c.13-.76-.51-.93-1.19-.72-2.3.57-3.8,3-5.24,4.69-.38.57-1,2.31-.41,2.83s1.89-.42,2.59-1.08c1.9-1.64,2.62-3.9,4.25-5.7Z" transform="translate(-42.26 -27.43)"/><path class="cls-3" d="M588.9,400.4c.19,0,.42,0,.36.42s-.19.17-.38.3a3.64,3.64,0,0,0-1.62,1.58,3.7,3.7,0,0,0-.39,2.22c-.41,1.35-2.61,2.49-3.66,1.12a1.5,1.5,0,0,1-.19-.62,1.57,1.57,0,0,1,.08-.65h.51c.15.26.3.53.46.53s0,0,.26-.15.69-.44.74-.69v.31a3.94,3.94,0,0,1,.15-1.6,3.78,3.78,0,0,1,.79-1.39,3.87,3.87,0,0,1,1.29-.94,3.67,3.67,0,0,1,1.56-.32l-.09.13a.3.3,0,0,0,0,.3l.11-.49Z" transform="translate(-42.26 -27.43)"/><path class="cls-3" d="M602.15,391.31c-2.65,1.48-5.08,3-7.58,4.55l-.55-.53a8.79,8.79,0,0,1,3.36-3.43,9.21,9.21,0,0,1,4.62-1.33l.19.74Z" transform="translate(-42.26 -27.43)"/><path class="cls-3" d="M579.82,410.48c.44,1.9-.72,3.34-1,5.14-.13.58-.28,1.14-.43,1.75h-.61a6.74,6.74,0,0,1-.3-1.9c0-1.89,0-4.23,1.78-5.27l.55.24Z" transform="translate(-42.26 -27.43)"/><path class="cls-3" d="M569.45,410.86a11.06,11.06,0,0,1,3.79.51c1.21.29,2.43.55,3.79,1v.55a7.54,7.54,0,0,1-7.79-1.54l.21-.47Z" transform="translate(-42.26 -27.43)"/><path class="cls-3" d="M591.46,415a12.06,12.06,0,0,1-10.82-1.18l.17-.55c3.79.11,6.9.87,10.59,1.16V415Z" transform="translate(-42.26 -27.43)"/><path class="cls-3" d="M582.51,399a3.32,3.32,0,0,1-.45,1.46,3.41,3.41,0,0,1-1.07,1.1,47,47,0,0,0-6.06,5.39l-.61-.15a6.11,6.11,0,0,1,1-3,18,18,0,0,1,3.88-4.45,3.24,3.24,0,0,1,1.35-.84,3.3,3.3,0,0,1,1.59-.09Z" transform="translate(-42.26 -27.43)"/><path class="cls-3" d="M583.17,403.61a6.34,6.34,0,0,1,.78-3.07,6.44,6.44,0,0,1,2.14-2.32c.67-.34,1.56-.84,2.3,0,.76-.5,1.67.61,1.1,1.27H589c-.46-.3-.44,0-.67-.68-.49.93-.93.77-1.38,1.06a5.23,5.23,0,0,0-1.25.95,10.45,10.45,0,0,0-2.07,2.9l-.51-.11Z" transform="translate(-42.26 -27.43)"/><path class="cls-3" d="M468.71,232.55c0,.35.67.59.88.4s0,.14,0,.21l-.16.34A70.19,70.19,0,0,1,437,265.77,94.29,94.29,0,0,1,411.08,272c-4,.57-8.08-.11-11.7,1.52-8.46,4.12-18,22.78-9.14,30.37,6.28,5.58,15,9.21,22.35,12.26,13.75,2.78,29.89-3,36.88-15.56,5.56-13.29,6.9-27.89,9.73-41.9a135.85,135.85,0,0,1,7.58-24.12,5.54,5.54,0,0,1,.63-1.35,4,4,0,0,0,1.23-.74Zm.86-1.69a10.41,10.41,0,0,1-.25,2.55c-.59,1.52-1.67,3.79-2.27,5.22-9.18,19.8-8.46,42.43-16.86,62.42-7.34,12.81-23.58,18.86-37.79,16.11a124.78,124.78,0,0,1-12-5.28c-5.59-3.05-12.3-6.26-14.69-12.7-2.58-10.89,0-25.32,11-31,4.26-2.12,9.29-1.51,13.78-2a101,101,0,0,0,24.44-5.5,76.81,76.81,0,0,0,32.59-28.17l.47-.72a2.4,2.4,0,0,1,.69-.62A2.34,2.34,0,0,1,469.57,230.86Z" transform="translate(-42.26 -27.43)"/><path class="cls-3" d="M620.85,282.5A60.79,60.79,0,0,1,606.36,299a45.94,45.94,0,0,1-12.09,5.47c-3.06,1-6.37,1.12-9.37,1.9-10,3-15.68,12.32-16.12,22.51v1.48c-1.34.4-3,1.29-3.31,2.83a5,5,0,0,0,.14,2,5.25,5.25,0,0,0,.92,1.79c1.89,2.52,4.61,5.13,6.65,7.59,6.75,7.82,13.28,15.83,21.07,22.61,5,4.29,10.9,8.77,17.78,7.21,6.6-1.4,12.72-4.93,18.87-7.74,3.11-1.54,6.27-2.83,9.15-4.59a75.63,75.63,0,0,0,26.45-30.55,113,113,0,0,0,7.34-19.13c4.72-24-4-49.36-20.29-67.11s-40.74-25.61-63.95-27.9l3.61-7.6c16.79,15.93,32.72,38.08,31,62.48a21.52,21.52,0,0,1-3.68,10.13l.31.19Zm-3.23-1.9c3.59-11.81-2.44-24.22-7.86-34.59-7.93-14.73-20.21-27.31-31.68-39.35l12.47,1.77c37.22,5.12,71.67,30.9,82.34,67.56A77.76,77.76,0,0,1,675,312.61c-5.69,19.89-16.31,39.5-34.13,50.83-6.11,3.44-12.34,6.11-18.62,9.17s-14,5.5-20.48,1.77c-12-7.26-20.51-18.57-30.2-28.48-2.39-2.73-5-4.61-7.36-7.5a7.05,7.05,0,0,1-1.68-2.82,7,7,0,0,1,1.06-6.32,7,7,0,0,1,2.52-2.11L565,329A25.83,25.83,0,0,1,587.4,298a58.63,58.63,0,0,0,5.9-.86,40,40,0,0,0,10-3.09,51,51,0,0,0,14.15-13.55l.3.17Z" transform="translate(-42.26 -27.43)"/><path class="cls-3" d="M675,300.09c4.17-3.45,4.8-9.24,6.44-14.06,2.56-8.79,0-17.94.84-26.94.17-3.79,1.23-7.36,1.14-10.82a43.37,43.37,0,0,0-3.49-15.18c-2.2-4.79-6.26-8.15-9.14-12.78-3.91-6.13-8.06-12.34-13.76-16.78a19.61,19.61,0,0,0-1.71-1.33V202c0-.06.53-.42,0-.23a3.71,3.71,0,0,1-1.2.1,1.25,1.25,0,0,1-.69-.31,1.28,1.28,0,0,1-.39-.66,3.81,3.81,0,0,0-1.08-2.55c-1-.93-2.12-1.31-2.9-2.35a13.37,13.37,0,0,0-2.88-2.43,10,10,0,0,1-2.31-2.41c-.59-1.18,0-2.09-.15-3.23a15.83,15.83,0,0,0-3.46-8.39,28.91,28.91,0,0,0-6.44-4.4,189.26,189.26,0,0,0-23-11.39,50.65,50.65,0,0,0-8.84-7.29c-2.23-1.39-5.89-4.52-8.45-5l.43-.33c-4.59,5.93-11.37,11-19.2,10.48s-13.88-6.41-18.24-12.35l2.44-.74a118.7,118.7,0,0,1-15.83,56.51A58.13,58.13,0,0,1,504,224.66a47.27,47.27,0,0,1-16.48.11c-3.3-.51-6.8-2.13-9.84-2.24a3.51,3.51,0,0,0-1.47.22,3.45,3.45,0,0,0-1.24.82,33.53,33.53,0,0,0-5,8.15l-1.89-.25c-.48-4.86,1.1-11.1,5.89-13.63,5-2.12,9.84.8,14.51,1.46a44.1,44.1,0,0,0,15,0,53.69,53.69,0,0,0,36.54-16.76c9.88-15.53,16.23-38.1,16.34-58.09,4.44,6.53,10,14.13,18.49,14.87,6.92.57,13.38-4.14,17.54-9.38,4-3.08,9.32.34,12.23,3.26a103.18,103.18,0,0,1,7.41,9.15l-.5-.3a56,56,0,0,1,10.83,2.68c7.59,2.62,15.32,6.45,19.21,13.84a46.27,46.27,0,0,1,4.55,11.23c2.16,1.29,4.83,2.38,6.46,4.86,1.12,1.9.23,4.54,1.37,5.7.17.13.17,0,0-.21-.19-.44.36-1,1.27-1.16,1.76-.19,3.05,1.31,3.92,2.24a27.81,27.81,0,0,1,3.23,4.75c4.62,8.18,11.62,13.74,18.37,20.16,5.55,5.88,5.53,14.6,5,22.17-1.11,7.44-2.37,14.16-1,21.58,1,7.25,1.55,15.44-1.56,22.36-1.8,3.38-4.79,5.87-6.86,9.08L675,300Z" transform="translate(-42.26 -27.43)"/><path class="cls-3" d="M594.48,213a245.53,245.53,0,0,0-27.93,4c-6.24,1.48-12.53,3.53-19,4.5a77.45,77.45,0,0,1-29.6-1.35l.23-1.89a115.28,115.28,0,0,0,37.35-5.19c12.23-4.15,26.54-6.66,39.21-2l-.21,1.9Z" transform="translate(-42.26 -27.43)"/><path class="cls-1" d="M518,219.27c-1.4,8.8-2.54,18-3.3,27.71a361.55,361.55,0,0,0,8.06,108.77" transform="translate(-42.26 -27.43)"/><path class="cls-3" d="M614.17,244.7C586,266.38,545.39,270.2,513.1,255.35l2.1-.21A49.2,49.2,0,0,1,487.48,262a47.23,47.23,0,0,1-26.39-9.78l1.14-1.52a43.13,43.13,0,0,0,25.33,8.6,44.12,44.12,0,0,0,26-8.67A125.5,125.5,0,0,0,552,257.78a116.9,116.9,0,0,0,37.45-4.95,133.74,133.74,0,0,0,23.68-9.74Z" transform="translate(-42.26 -27.43)"/><path class="cls-3" d="M621.72,275.47c-30.33,20.3-74.57,34.17-108.07,14.28h.8a56.87,56.87,0,0,1-14.72,6,57.54,57.54,0,0,1-46.07-7.38l.93-1.66a83.44,83.44,0,0,0,14.41,5,71.44,71.44,0,0,0,45-3.8,135.79,135.79,0,0,0,27.36,5.47c18.3,1.75,36.63-2.6,53.89-8.39a194.44,194.44,0,0,0,25.55-11.05Z" transform="translate(-42.26 -27.43)"/><path class="cls-1" d="M556,165a63.09,63.09,0,0,0,17.25,10,65.36,65.36,0,0,0,35.3,3l2.91-15" transform="translate(-42.26 -27.43)"/><path class="cls-1" d="M653.76,200.91s-39.59-9.49-45.12-22.91" transform="translate(-42.26 -27.43)"/><path class="cls-1" d="M585.51,178.3a53.74,53.74,0,0,1,1.12,33.24" transform="translate(-42.26 -27.43)"/><path class="cls-5" d="M625.91,191.46s-1.69,5.14,5.2,11.06S632.24,227,632.24,227" transform="translate(-42.26 -27.43)"/><path class="cls-1" d="M663.64,209.24,638.9,231.43" transform="translate(-42.26 -27.43)"/><path class="cls-1" d="M549.29,188.46q1.8,2.07,3.63,4.29l2.4,3a4.1,4.1,0,0,0,1.45.82,3.91,3.91,0,0,0,1.66.16c3-.51,5.29-5.94,5.33-13.7a12.89,12.89,0,0,0,6.58-9.3" transform="translate(-42.26 -27.43)"/><path class="cls-1" d="M566.91,329c7.22-4.18,15.56-3.8,19.87.36,5.69,5.5,5.33,18.7-5,26.4,13.84-9.89,27.72-9.05,31.31-3.66,3.09,4.61-.25,14.45-8.22,22.78" transform="translate(-42.26 -27.43)"/><path class="cls-1" d="M386.09,292.71s16.8-3.93,20.38,2.41c1.63,2.93-.68,7.71-1.35,9.15A18.74,18.74,0,0,1,400,311a39.53,39.53,0,0,1,4.05-3.11c5.18-3.51,10.32-7,14.3-5.52s6.24,7.44,5.8,14.42" transform="translate(-42.26 -27.43)"/><path class="cls-5" d="M575.88,193.3a5.91,5.91,0,0,1,1.38,3.3,5.8,5.8,0,0,1-.74,3.36l-6.58-.26a7.19,7.19,0,0,0,.72-2.76,6.92,6.92,0,0,0-.66-3.38,11.78,11.78,0,0,0,3.2-1.9,11.5,11.5,0,0,0,2.6-3l3.62,1.52a20.39,20.39,0,0,1,.67,3.36,21.51,21.51,0,0,1-.73,8.37,68.89,68.89,0,0,0-7.18-.49h-5a11.31,11.31,0,0,0,.91-3.8,11.15,11.15,0,0,0-1.27-5.69,11,11,0,0,0,4-1.52,11.16,11.16,0,0,0,4-4.46l6.07,1.9a25.1,25.1,0,0,1,1.2,4.44,26.82,26.82,0,0,1-.88,12.58,32.42,32.42,0,0,0-6.86-1,31.86,31.86,0,0,0-12.31,1.9,17.11,17.11,0,0,0,3-8.85,16.74,16.74,0,0,0-1-6.72,12.16,12.16,0,0,0,4.27-1.08,12.87,12.87,0,0,0,6-5.92l7.88,2.05a21,21,0,0,1,2.37,5.69,24.33,24.33,0,0,1-1.89,16.48,36.19,36.19,0,0,0-8.46-1.44,38,38,0,0,0-16.89,3.28,20.36,20.36,0,0,0,4.15-15.18" transform="translate(-42.26 -27.43)"/><path class="cls-2" d="M563.78,187.17a9.48,9.48,0,0,0,4.74-.92,10.07,10.07,0,0,0,5-6l10.44,2a32,32,0,0,1,2.79,8.92,33.53,33.53,0,0,1-2.64,18.56A51.51,51.51,0,0,0,553,212.68a37.86,37.86,0,0,0,4.34-8.32,37.47,37.47,0,0,0,2-7.87" transform="translate(-42.26 -27.43)"/><path class="cls-1" d="M563.7,184.15a5.61,5.61,0,0,0,2.16,0c4.25-.74,6-6.38,6-6.72l12.67.66" transform="translate(-42.26 -27.43)"/><path class="cls-3" d="M573.54,213.21c-2-1.1-4.32-.57-6.5-.61A54.16,54.16,0,0,0,544,219.46c6.27-6.34,11-14.15,11.9-23.18l1.9.21a37.53,37.53,0,0,1-9.25,20.73l-1.08-1.5A61.23,61.23,0,0,1,567,211.67c2.28-.21,4.46.42,6.7-.3l-.16,1.9Z" transform="translate(-42.26 -27.43)"/><path class="cls-1" d="M554.21,194.36a47.47,47.47,0,0,1-14.47,25.27" transform="translate(-42.26 -27.43)"/><path class="cls-1" d="M551.47,191a52.32,52.32,0,0,1-21.06,29" transform="translate(-42.26 -27.43)"/><path class="cls-1" d="M557.29,179.4l-1.59,5.49a2.84,2.84,0,0,0,2,0,3.48,3.48,0,0,0,1.38-1.92,3.4,3.4,0,0,0-.16-2.35,5.19,5.19,0,0,0,2.23-.72c.57-.35,1.61-1,1.58-1.71s-.9-1.05-2.64-2.05l-2.64-1.52c-1.3,4.21-2.61,8.45-3.94,12.66a2.81,2.81,0,0,0,2.09,1.65,2.77,2.77,0,0,0,1.37-.11,2.72,2.72,0,0,0,1.15-.74,9.15,9.15,0,0,0,2.71-6.53,7.18,7.18,0,0,0,3-1.52c.67-.55,2.2-1.9,2.05-3.36s-1.36-1.71-6.79-4.8l-2.63-1.52-5.1,17.33c1.36,3.21,3.79,5.18,5.89,5A3.76,3.76,0,0,0,559,192a8.45,8.45,0,0,0,1.78-1.9,10.31,10.31,0,0,0,1.58-7.33l3.28-1.12" transform="translate(-42.26 -27.43)"/><path class="cls-2" d="M587.74,167.31a13.49,13.49,0,0,1-3.5.8,12.46,12.46,0,0,1-4.08-.35v3.5a17.68,17.68,0,0,0,4.85.66,18.32,18.32,0,0,0,5-.7,8.15,8.15,0,0,0,.79-3.06,8,8,0,0,0-1.21-4.61,15.5,15.5,0,0,1-13.06,1.9,16.83,16.83,0,0,1,.45,3.61,16.37,16.37,0,0,1-.51,4.06,24.94,24.94,0,0,0,15.22,1.25,16.6,16.6,0,0,0,0-14.05,31.43,31.43,0,0,1-5.47,2,30.41,30.41,0,0,1-12.37,1l-.28,10.44a45.17,45.17,0,0,0,22.18,4A33.63,33.63,0,0,0,595,156a32.29,32.29,0,0,1-7,3.79,26.25,26.25,0,0,1-9.12,2.13,24.57,24.57,0,0,1-8.43-1.12q-.71,6-1.39,12.11" transform="translate(-42.26 -27.43)"/><path class="cls-2" d="M566.28,157.34l-1.76,13.18" transform="translate(-42.26 -27.43)"/><path class="cls-2" d="M561.88,153.6l-1.17,14.56" transform="translate(-42.26 -27.43)"/><path class="cls-2" d="M587.4,156.34l7.8-3.93a10,10,0,0,1,5.89,6.34,20.47,20.47,0,0,1,.84,8.86A34.75,34.75,0,0,1,598.7,179" transform="translate(-42.26 -27.43)"/><path class="cls-2" d="M604.64,178.6a26,26,0,0,0,2.43-6.79A27,27,0,0,0,605.72,157" transform="translate(-42.26 -27.43)"/><path class="cls-2" d="M667.64,241l-4.85-4,4.85-3.36a10.82,10.82,0,0,1,5.33,5.05,11.21,11.21,0,0,1,0,9.3l-15.7-11.39,9.21-7.11a10.88,10.88,0,0,1,5.69,2.14c5.12,3.93,6.28,13,2.54,22.5l-22.75-18,14.52-13.06a18.39,18.39,0,0,1,5.48,3.36c11.82,10.59,4.65,33.58,4.21,34.93L651.41,241.1" transform="translate(-42.26 -27.43)"/><path class="cls-2" d="M644,235.27l21.5-18.79,8.15,5.22" transform="translate(-42.26 -27.43)"/><path class="cls-2" d="M661.8,254,677,268.81l6.45-10.89" transform="translate(-42.26 -27.43)"/><path class="cls-2" d="M667.89,265.07,677.61,276l5.69-9.23" transform="translate(-42.26 -27.43)"/><path class="cls-2" d="M671.66,274.41l6.45,8.94,5.68-10.49" transform="translate(-42.26 -27.43)"/><path class="cls-2" d="M673.92,282.55c1.3,3.63,2.6,7.28,3.9,10.9l6.2-13.76" transform="translate(-42.26 -27.43)"/><path class="cls-5" d="M642.22,208.54c.17.87.34,1.78.49,2.73.25,1.52.42,3,.55,4.39l6.71-5.35-4.15-3.95-7.38-2.05a49.19,49.19,0,0,1,1.42,5.84,53,53,0,0,1,.9,10.52l13.89-11c-1-.8-2.08-1.65-3.16-2.58s-2.15-1.9-3.11-2.83c-2.41-.55-4.87-1.16-7.36-1.78s-5.53-1.45-8.11-2.19a31.12,31.12,0,0,1,3.66,7,32.91,32.91,0,0,1,1,18.49l22.75-16.55c-1.69-1.31-3.43-2.78-5.19-4.43-.76-.7-1.5-1.4-2.18-2.1-4-.78-8.27-1.73-12.65-2.83-5-1.27-9.69-2.64-14.11-4.07" transform="translate(-42.26 -27.43)"/><path class="cls-3" d="M601.24,197.64a4.37,4.37,0,0,0,.63-2.66,4.45,4.45,0,0,0-1.08-2.52l1.06.23a4.3,4.3,0,0,0,4.51-2.05l.38.53a9.8,9.8,0,0,0,5.69,3.8v.26a5.77,5.77,0,0,1,0,2.8,5.93,5.93,0,0,1-1.26,2.5H611l-12-.85h-.55a13.81,13.81,0,0,0-.41-8.57l-.36-1a7.92,7.92,0,0,0,4.83.51,8,8,0,0,0,4.23-2.4,10.94,10.94,0,0,0,3.28,3.49,10.76,10.76,0,0,0,4.47,1.71,12.93,12.93,0,0,1-1.15,9.09l-.16.27h-.3l-16.47-1.45h-.48v-.47a34,34,0,0,0-1.33-13.29,13.84,13.84,0,0,0,12.71-2.75,9.89,9.89,0,0,0,8.45,7.31H616a19.24,19.24,0,0,1-.57,13.29h-.34l-21.81-1.58h-.51a43.82,43.82,0,0,0-1.9-19.91,19,19,0,0,0,8.43,1.11,18.85,18.85,0,0,0,8.07-2.69A14.5,14.5,0,0,0,618,191h.32v.29a38.79,38.79,0,0,1-.49,17.67h-.38l-27.08-1.06h-.51v-.52a81,81,0,0,0-1.31-25.57l-.15-.77.74.22a27.64,27.64,0,0,0,18.83-1.4,20.18,20.18,0,0,0,12.15,10h.21l.09.21a34.68,34.68,0,0,1,1.58,22.4v.13l-.1.37h-.34l-17.06-.56c-5-.11-12.1-.47-17.07-.36v-.94c9.65.6,24.27.58,34.13.91l-.45.34a33.83,33.83,0,0,0-1.44-21.95l.28.27a21.13,21.13,0,0,1-12.5-10l.61.21a28.38,28.38,0,0,1-19,1.27l.59-.55a82.33,82.33,0,0,1,1.32,25.87l-.45-.53,27.2,1.06-.47.34a36.72,36.72,0,0,0,1-12.66l-.62-4.19.36.36a16.6,16.6,0,0,1-6.64-2.89,14.7,14.7,0,0,1-4.49-5.69l.66.21a19.86,19.86,0,0,1-15.92,1.69l.58-.59a44.2,44.2,0,0,1,1.67,19l-.43-.53,21.8,1.57-.47.31a18,18,0,0,0,.51-12l.42.34a10.71,10.71,0,0,1-9-7.3l.72.2a14.59,14.59,0,0,1-12.19,2.72l.55-.59a34.33,34.33,0,0,1,1.16,12.87l-.44-.51L612.87,202l-.46.25a11.84,11.84,0,0,0,1.14-8.13l.4.38a11.48,11.48,0,0,1-7.78-5.08h.72a8.67,8.67,0,0,1-8.64,1.89l.53-.49a14.54,14.54,0,0,1,.57,8.58l-.42-.59,12,.86-.4.19a4.88,4.88,0,0,0,.91-4.27l.33.34a10.83,10.83,0,0,1-5.86-4.08h.76a5.09,5.09,0,0,1-2.27,1.67,5,5,0,0,1-2.82.22l.52-.7a5,5,0,0,1-.15,5.26l-.78-.53Z" transform="translate(-42.26 -27.43)"/><path class="cls-5" d="M623.43,190.26a25,25,0,0,0,1.74,10c1.25,3.15,2.49,4.22,3.09,6.87a15,15,0,0,1-1.57,9.89l-11.38,1.2" transform="translate(-42.26 -27.43)"/><path class="cls-1" d="M632.41,204.08a30.75,30.75,0,0,1-1.72,18l-8-.4" transform="translate(-42.26 -27.43)"/><path class="cls-5" d="M624.36,176.31l-1,3.79a16.23,16.23,0,0,0,2.43,1.39,18.36,18.36,0,0,0,4.68,1.54,11.6,11.6,0,0,0-1.27-3.8,12.57,12.57,0,0,0-6.3-5.69c-.77,2.5-1.57,5-2.37,7.59a25.68,25.68,0,0,0,4.21,2.07,26.35,26.35,0,0,0,8.31,1.78,15.63,15.63,0,0,0-1.71-6.24,17.2,17.2,0,0,0-10-8.11q-1.65,5.7-3.26,11.28a32.19,32.19,0,0,0,11,5.27,31.13,31.13,0,0,0,7.17,1,21.81,21.81,0,0,0-2.44-9.26,23.81,23.81,0,0,0-14.47-11.26q-2.08,7.29-4.19,14.58a57.51,57.51,0,0,0,7.87,4.46,58.1,58.1,0,0,0,18.07,5.14,48,48,0,0,0-5.8-18.18" transform="translate(-42.26 -27.43)"/><path class="cls-1" d="M637.86,196.18l7.14.19c0-1.52-.17-3.09-.28-4.67-.17-2.12-.38-4.17-.61-6.17" transform="translate(-42.26 -27.43)"/><path class="cls-1" d="M617.13,164.84c-.93,2.66-1.89,5.54-2.65,8.66s-1.59,6.6-2.13,9.6" transform="translate(-42.26 -27.43)"/><path class="cls-6" d="M564.9,337s9.19-9.72,17.23-4.12-2.35,20.69-2.35,20.69Z" transform="translate(-42.26 -27.43)"/><path class="cls-6" d="M584.69,358.87S598,373.2,600,372.52c0,0,10.9-8.57,9.48-14.58-.53-2.32-.91-5.7-5.46-6.34a25.75,25.75,0,0,0-19.34,7.27Z" transform="translate(-42.26 -27.43)"/><path class="cls-3" d="M449.89,302.49c-2.2,18.47,3.05,25.81,21.95,26.06,15.3,1.41,30.34-3.34,44.63-8.43h.31l.51.21a58.59,58.59,0,0,0,37.14,3.8,101.25,101.25,0,0,0,12.42-3.59l1,1.63c-10.53,9.49-26.55,11.6-39.63,6.78a37,37,0,0,1-11.92-7l.79.1c-18.75,5.09-45,20.2-63.63,9.24-10.22-6.07-9.72-19.85-5.36-29.17l1.89.49Z" transform="translate(-42.26 -27.43)"/><path class="cls-6" d="M386.09,296.58s9.12-3.62,15.17-1.25a2.87,2.87,0,0,1,1.38,1s1.29,1.89-4.91,12.69a17.56,17.56,0,0,1-11.55-12.47Z" transform="translate(-42.26 -27.43)"/><path class="cls-6" d="M404.78,312.93a13.32,13.32,0,0,1,5.5-5.91,9.35,9.35,0,0,1,6.9-1.4c3.36,1.1,5.69,5.69,5.2,11.27a24,24,0,0,1-6.05.19A25.26,25.26,0,0,1,404.78,312.93Z" transform="translate(-42.26 -27.43)"/><path class="cls-3" d="M515.53,242.71a52.83,52.83,0,0,0,23.41,7.46c.27,0,.53.17.78,1.06-.29.88-.57,1.05-.85,1a41.75,41.75,0,0,1-12.46-1.9,38.39,38.39,0,0,1-11.94-6.11l1.06-1.58Z" transform="translate(-42.26 -27.43)"/><path class="cls-3" d="M516.36,235.33a32.93,32.93,0,0,0,14.34,4.48c.73.11,1.42-.33,2.25,1-.66,1.44-1.5,1.06-2.27,1.16a23.06,23.06,0,0,1-15.4-5.09Z" transform="translate(-42.26 -27.43)"/><path class="cls-3" d="M515.73,240.15a69.43,69.43,0,0,1,6.89,3.2c.34.14.62.35.64,1.45-.66.83-1.06.78-1.42.64a17.9,17.9,0,0,1-7.13-3.79l1-1.6Z" transform="translate(-42.26 -27.43)"/><path class="cls-3" d="M457.05,276.21a32.42,32.42,0,0,0,20.86,8.36c-7.85,2.22-16.11-2.07-22.13-6.89l1.22-1.47Z" transform="translate(-42.26 -27.43)"/><path class="cls-3" d="M457.85,271.26a68.31,68.31,0,0,0,12.67,4.82c1,.29,2.21.53,3.3.74.37,0,.72.32,1,1.24-.49.81-.91.94-1.31.93a33.68,33.68,0,0,1-16.63-6.12Z" transform="translate(-42.26 -27.43)"/><path class="cls-3" d="M456,281.53a21.22,21.22,0,0,0,9.86,4.78c.25,0,.48.19.71.88-.31.64-.59.76-.88.74a15.55,15.55,0,0,1-11-5.05Z" transform="translate(-42.26 -27.43)"/><path class="cls-3" d="M570.34,314.65a37.67,37.67,0,0,1-23.19,2.15c-.49-.13-1.06,0-1.38-1,.68-.74,1.14-.43,1.65-.38a44.35,44.35,0,0,0,22.2-2.52Z" transform="translate(-42.26 -27.43)"/><path class="cls-3" d="M574.55,309.13a39.29,39.29,0,0,1-27.42,2.7c-.59-.19-1.27,0-1.57-1.26.85-.85,1.35-.45,1.9-.38a44.58,44.58,0,0,0,26.25-2.79l.78,1.73Z" transform="translate(-42.26 -27.43)"/><path class="cls-3" d="M582.38,304.12a52.35,52.35,0,0,1-27.76,4.37c-1.33-.31-2.78.24-3.79-1.9,1.57-1.73,2.73-.86,4.06-.93a73.87,73.87,0,0,0,19.28-1.46c2.56-.5,5-1.2,7.58-1.9l.69,1.76Z" transform="translate(-42.26 -27.43)"/><path class="cls-3" d="M474.23,221.75C463.42,220.44,441,218,436.1,206.81l-1,.34,2.5,1.2L423,214.05l-.75.3c-6-1.9-10.19-6.28-14.28-10.63a52.52,52.52,0,0,1-11.38-21.45,212.43,212.43,0,0,1-3.64-23.52h1.9c.15,7.59,2.69,15.37,4.72,22.78a48.37,48.37,0,0,0,11.89,19,63,63,0,0,0,11.73,8.68h-1.89l15.17-4.37,1.8-.51.68,1.72-1,.35c2.68,6,10.41,8.22,16.33,10.1a118.92,118.92,0,0,0,20.17,3.6l-.15,1.9Z" transform="translate(-42.26 -27.43)"/><path class="cls-3" d="M505.1,176.25c-4.7,4.27-9.48,8.33-14.62,12.15-4.62,3.25-9.38,7-15.17,8-9.67.61-19.54,5.7-28.59,9.08a35,35,0,0,1-8.91,3l-1.61-3.8c5.33-3.64,11.66-4.93,17.67-7a91,91,0,0,1,19-4.14c6.14.42,11.37-3.66,16.38-6.81a148.74,148.74,0,0,0,14.66-11.72l1.29,1.41Z" transform="translate(-42.26 -27.43)"/><path class="cls-3" d="M392.69,113.42a91.33,91.33,0,0,1,54.62-52.83c30.7-10.27,76.05-5.22,96.6,22a65.75,65.75,0,0,1,11.49,23.1l-1.5.48a69.35,69.35,0,0,0-12.76-21.26,62,62,0,0,0-31-18.78,104,104,0,0,0-60.67.74C433.89,72,420.12,82.06,409,93.92a114,114,0,0,0-14.78,20.16l-1.45-.68Z" transform="translate(-42.26 -27.43)"/><path class="cls-3" d="M376.57,117.29c-4.27,1.57-4,7.1,0,9.07a34.65,34.65,0,0,0,3.3,17.47,36.32,36.32,0,0,0,11,13.29l-.32-.16a126.51,126.51,0,0,0,16.63.55,72.4,72.4,0,0,0,15.87-2.63,32.27,32.27,0,0,0,16.85-24.11,100.83,100.83,0,0,0-.11-11.92v-1.09a35.78,35.78,0,0,0,16.48-1l1.19-.36.1,1.19c1.08,14.94,9.74,31,25.14,34.57,5.95,1.21,12.3,0,18.41-.44s12.4-.91,17.36-4.44c7.82-5.45,10.28-15.09,11.59-24.09,1-4.8,2.1-10.17,5.69-13.72a6.19,6.19,0,0,0,3-7.08,3,3,0,0,0-1.17-1.44,3,3,0,0,0-1.79-.46,88.56,88.56,0,0,0-9.36.19l-19.06,2c-6.39.66-12.85.68-19.17.91-7.83.25-15.88,1.37-23.77,1.9-3.32,0-5,1.78-7.36,4.1a9.15,9.15,0,0,1-5,2.22c-4.33.19-8.42.61-12.55-1a10,10,0,0,0-6.3-1.27,178.37,178.37,0,0,0-18.86,2.26c-12.55,2-25.11,4.08-37.77,5.41Zm-.62-3c12.68-1.54,25.4-3,37.91-5.14A180.64,180.64,0,0,1,433,106.87a13.22,13.22,0,0,1,5.23.49,23.16,23.16,0,0,0,4.32,1.61,43.07,43.07,0,0,0,9.08.18c3.42-.27,4.52-3.08,7.4-4.81a10.37,10.37,0,0,1,5.14-1.52c7.9-.51,15.9-1.44,23.9-1.59,6.41-.15,12.73,0,19-.66l19-1.75a96.2,96.2,0,0,1,9.75-.19,5,5,0,0,1,4.85,2.94,7.41,7.41,0,0,1-1.67,7.59c-1.1,1.26-2.38,1.9-3.16,3.27-3.53,6.26-3.51,13.57-5,20.54a29.35,29.35,0,0,1-10.24,17.08c-8.3,6-19,5.36-28.67,6.5-17.7,2-32.23-12.55-35.26-29.24a48.07,48.07,0,0,1-1-9.72l1.29.84a22.53,22.53,0,0,1-16.34,1.21l1.16-.89a96.45,96.45,0,0,0-.55,12A36.07,36.07,0,0,1,425,158.16c-11,4.48-24.23,5.69-35.2.34a37,37,0,0,1-15.17-31.81,8.45,8.45,0,0,1,.49.89,7.13,7.13,0,0,1-2.78-11,7.06,7.06,0,0,1,3.58-2.4Z" transform="translate(-42.26 -27.43)"/><path class="cls-3" d="M551.47,120c-5.4-1.55-10.46-3.79-15.87-4.33-.37-.37-.49-.66-1-1.12l-.91-1.67C535.3,106.41,549.52,117.06,551.47,120Z" transform="translate(-42.26 -27.43)"/><path class="cls-3" d="M540.5,100.39c.83-.47,1.19.14,1.7.4,2.85,1.9,5.69,4.27,8.61,6.13.68.35,1,1,1.74.37l-.79,1.72c0-.7-.29-.78-.57-.83-3.54-1.08-7.58-1.69-11.11-2.72-.53-.22-1.23,0-1.42-1l1.89-4Z" transform="translate(-42.26 -27.43)"/><path class="cls-3" d="M397.41,125.83a49,49,0,0,1-7.4,13.44l-.6-.32a63,63,0,0,1,3.18-7,29.57,29.57,0,0,1,4.19-6.46Z" transform="translate(-42.26 -27.43)"/><path class="cls-3" d="M399.23,130.58a15.77,15.77,0,0,1-3.43,6.87l-.86-.44a14.42,14.42,0,0,1,2.28-5.29,12.54,12.54,0,0,1,1.15-1.56Z" transform="translate(-42.26 -27.43)"/><path class="cls-1" d="M561.6,105.92a43.15,43.15,0,0,0-6.43,14.1c-1,4.1-3.79,15.59,2.11,26.9,1.74,3.38,4.66,10,11.83,12.06a41.87,41.87,0,0,0,12.59.55,23.59,23.59,0,0,0,6.12-3.42,24.38,24.38,0,0,0,8.25-12.36,47,47,0,0,0,2.16-11.8,50.22,50.22,0,0,0-6.49-26.75,20.37,20.37,0,0,0-12-7,20,20,0,0,0-2.79-.32,17,17,0,0,0-10.35,2.64A18.29,18.29,0,0,0,561.6,105.92Z" transform="translate(-42.26 -27.43)"/><path class="cls-3" d="M575.12,159.64c-15.53-9.49-22.66-30.66-13.82-46.94a38.44,38.44,0,0,1,11.64-13.44,11.22,11.22,0,0,1,9.1,1.31c-8,8-13.73,19-13.73,30.46a35.77,35.77,0,0,0,12.86,26.58,14.54,14.54,0,0,1-6,2.07Zm.45-1.9a.74.74,0,0,0-.21,0,10.64,10.64,0,0,0,3.64-1.25l-.15,1.5a36.86,36.86,0,0,1-12.3-29c.57-10.91,5.91-21,13.27-28.85l.23,1.52a8.76,8.76,0,0,0-6.43-.63l.3-.15c-20,15.18-18.27,42.69,1.65,57Z" transform="translate(-42.26 -27.43)"/><path class="cls-3" d="M565.35,100.26a21.92,21.92,0,0,0-.7-24.16l1.75-.61a125.36,125.36,0,0,1-.7,12.7c-.46,4.31-1.33,9.17-4.46,12.47-5,5.3-9.14,13.29-6.41,20.48l-1.54,1.1c-6.2-7.08-1.7-19.47,5.16-24.43,6.56-5,7-14.59,6-22.17l-.76-4.21c7,8.73,9.48,20,3.17,29.86l-1.59-1Z" transform="translate(-42.26 -27.43)"/><path class="cls-1" d="M579.69,98.06s3.79-2.32.79-11.66S566,71.22,566,71.22l-.51,4.42" transform="translate(-42.26 -27.43)"/><path class="cls-3" d="M397.14,178.76a74.32,74.32,0,0,1-13.91-.25,15.94,15.94,0,0,1-9-2.85c-11.15-12-14.56-34-11.28-48.84.62-4.23,4.23-9.76,9.19-8l.52,1.63c-1.43,2.94-3.66,4.5-4.35,7.59-4,11.19-4.81,23.87,0,35,2.32,5.2,4.52,11.86,10.64,13.4A56.08,56.08,0,0,0,397,177l.17,1.71Z" transform="translate(-42.26 -27.43)"/><path class="cls-3" d="M381.18,116c-3.79-2-6.66-7.1-4.78-11.39a20.41,20.41,0,0,1,4.51-6,77.87,77.87,0,0,1,12.59-10,3.89,3.89,0,0,1,2.81,0l-.44.92a23.11,23.11,0,0,1,0-3.53c.44-20.22,10.75-30.68,27.17-40.55,30.89-19,70.3-23.64,104.41-10.9a74.94,74.94,0,0,1,39.38,36.07l-1.68.87C544.5,29.27,489,21.71,448.22,36A110.51,110.51,0,0,0,424,47.2c-7.59,4.62-14.94,9.95-20,17.09S397.62,81.22,397.8,90l-.49.4c-.09,2.22-1.21,2.91-2.73,3.8-1.21.83-2.41,1.67-3.6,2.54-3.79,3-8.13,5.7-11,9.49a5.55,5.55,0,0,0,0,4.9,9.92,9.92,0,0,0,2.3,3.25l-1.12,1.54Z" transform="translate(-42.26 -27.43)"/><path class="cls-3" d="M396.69,89.21c14-38.57,55-54.06,93.41-51.25a115.54,115.54,0,0,1,62.7,25.19l-.45,1.69s-.14-.85,0-.44c-.1.72-.27,1.9-.84,2.24a15.18,15.18,0,0,0-1.89.55c-.19,0-.19.29.24-.41a1.91,1.91,0,0,0,.12-1.35,1.65,1.65,0,0,0-.21-.42,101.44,101.44,0,0,1,7.15,13.06l2.29,4.75a29.79,29.79,0,0,1,2,16.13h-1.9a35.7,35.7,0,0,0-4.17-14.22l-2.6-4.42-5-9c-.89-1.9-2.14-3.11-2.6-4.34a3.5,3.5,0,0,1,.19-2.62,4.41,4.41,0,0,1,2.24-2,11.59,11.59,0,0,1,3.11-.91,1.26,1.26,0,0,1,.79.46,4.35,4.35,0,0,1,.86,1.29v-.42l-.46,1.67a113.73,113.73,0,0,0-61.66-24.68C452.6,37,412,52.22,398.45,89.88Z" transform="translate(-42.26 -27.43)"/><path class="cls-3" d="M407.72,91.55l-1.89-2.3.85.34a22.8,22.8,0,0,1-7.58,2.11,3.15,3.15,0,0,1-1.46-.14,3.2,3.2,0,0,1-1.24-.77l-.21-1.9a3.33,3.33,0,0,1,1-1,3.24,3.24,0,0,1,1.38-.47,21.79,21.79,0,0,1,8.51.52l.14.15,1.89,2.29-1.46,1.2Z" transform="translate(-42.26 -27.43)"/><path class="cls-3" d="M373.39,123.72c-.4,4.31-1.18,8.34-1.73,12.44a70.4,70.4,0,0,0,1.1,24.68,82.87,82.87,0,0,0,3.79,12l-.23-.28a9.63,9.63,0,0,0,6,2.43l-.91,1.31a91.83,91.83,0,0,1-5.51-20.18,99.93,99.93,0,0,1-.93-20.88l1.89.15a83.59,83.59,0,0,0,6.22,40.2l.57,1.37h-1.5a10.7,10.7,0,0,1-7.43-3.23,61,61,0,0,1-7.28-38.15,31,31,0,0,1,4.13-12.47l1.9.6Z" transform="translate(-42.26 -27.43)"/><path class="cls-3" d="M421,151.82c10.07-3.8,13-15.79,14.24-25.42a72.74,72.74,0,0,0,.53-10.33l.63.54c-14.3,3.26-28.8,5-43.31,7-4.34.36-10.31,1.76-14.65.76l.47-.55a44.19,44.19,0,0,0,5.22,20.06l-1,.52a45.87,45.87,0,0,1-5.35-20.89c4-2.39,10.34-2.54,14.83-3.39,14.73-1.9,29.41-4.1,44.29-4.67a84.8,84.8,0,0,1-.57,11c-1.31,10-4.42,22.52-15,26.32l-.36-1.05Z" transform="translate(-42.26 -27.43)"/><path class="cls-1" d="M392,152.33s4.62,4.88,15.41,3.17" transform="translate(-42.26 -27.43)"/><path class="cls-3" d="M465.81,111.37l62.46-4.62h.49a71.43,71.43,0,0,1-.42,17.53c-1.46,14.59-7.85,21.26-22,24.07a77.32,77.32,0,0,1-17.19,1c-5.39-1.25-11.23-3.28-14.07-8.41l.85-.42c2.6,4.67,8.46,6.48,13.44,7.16a75.36,75.36,0,0,0,16.2-2.64c5.82-1.71,11.54-3.8,15.28-8.31,2.78-3.8,3.6-8.49,4.7-13a101.8,101.8,0,0,0,2.31-16.49l.51.45-62.45,4.61v-.93Z" transform="translate(-42.26 -27.43)"/><path class="cls-3" d="M551.19,63.11A2.93,2.93,0,0,1,552.25,62a2.87,2.87,0,0,1,1.48-.41c2.92-.52,7.21-1.07,9,1.89l-1.61,1a7.52,7.52,0,0,0-4.1,0c-.83.13-1.65.34-2.48.51a2.77,2.77,0,0,1-1.39.27,2.89,2.89,0,0,1-1.34-.42l-.59-1.9Z" transform="translate(-42.26 -27.43)"/><path class="cls-3" d="M568.44,104.78a22.35,22.35,0,0,0,3.47,3.8,5.4,5.4,0,0,1-5.08-2.83l1.61-1Z" transform="translate(-42.26 -27.43)"/><path class="cls-3" d="M566.78,107.27a5.42,5.42,0,0,0,3.09,3.79,5.27,5.27,0,0,1-4.91-3.28l1.89-.59Z" transform="translate(-42.26 -27.43)"/><path class="cls-3" d="M564.65,110.3c-.47,1.2.82,2.24,1.9,2.34a5.36,5.36,0,0,1-2.06-.4,5.12,5.12,0,0,1-1.73-1.18l1.76-.68Z" transform="translate(-42.26 -27.43)"/><path class="cls-3" d="M567.52,96.12c2.25-2.16,5.8-3.94,8.91-2.67-2.79,1.42-5.31,2-7.59,4.08l-1.29-1.41Z" transform="translate(-42.26 -27.43)"/><path class="cls-3" d="M568.73,92.08a10.56,10.56,0,0,1,9-1.9,16.76,16.76,0,0,0-7.83,3.4l-1.16-1.52Z" transform="translate(-42.26 -27.43)"/><path class="cls-3" d="M569.07,88.64a9.65,9.65,0,0,1,6.12-1.29v.23a10.46,10.46,0,0,0-5,2.6l-1.14-1.52Z" transform="translate(-42.26 -27.43)"/><path class="cls-3" d="M583.61,102.71c3.43-1.25,3.79.87,5.35,2.73,7.73,10.77,7.47,25.95.62,37a57.19,57.19,0,0,0,1.5-10.4,35.09,35.09,0,0,0-6.61-23.35c-1.31-1.9-2.87-2-1.56-5.32Z" transform="translate(-42.26 -27.43)"/><path class="cls-3" d="M384.14,174.33c4.28,1,7.77-.22,11.86-.83l.61,1.78C392.82,177.39,387.7,176.29,384.14,174.33Z" transform="translate(-42.26 -27.43)"/><path class="cls-3" d="M386.6,172.85a45.14,45.14,0,0,0,8.74-1.9l.87,1.69a8.62,8.62,0,0,1-9.61.25Z" transform="translate(-42.26 -27.43)"/><path class="cls-3" d="M389.18,170.57a38.39,38.39,0,0,0,5.82-1.8l.76,1.73a7.59,7.59,0,0,1-6.58,0Z" transform="translate(-42.26 -27.43)"/><path class="cls-3" d="M522.58,46.22a39.89,39.89,0,0,0,2.69-4.43,5.73,5.73,0,0,1-1.19,5.59Z" transform="translate(-42.26 -27.43)"/><path class="cls-3" d="M525.9,47.66c.64-1.14,1.57-2.71,2.12-3.8a45.86,45.86,0,0,0,1.9-4.23h.34a11.24,11.24,0,0,1-2.79,9.21L526,47.7Z" transform="translate(-42.26 -27.43)"/><path class="cls-3" d="M528.93,49a27,27,0,0,0,2.67-3.36,5.33,5.33,0,0,1-.06,2.51,5.24,5.24,0,0,1-1.21,2.2l-1.4-1.27Z" transform="translate(-42.26 -27.43)"/><path class="cls-3" d="M532.42,50.64a15.68,15.68,0,0,0,3.49-5,5.88,5.88,0,0,1-.09,3.57,6,6,0,0,1-2.13,2.87Z" transform="translate(-42.26 -27.43)"/><path class="cls-3" d="M422.72,56.22A8.64,8.64,0,0,1,420.27,51c.7.67,1.25,1.39,1.9,2.05s1.29,1.2,1.9,1.9l-1.33,1.35Z" transform="translate(-42.26 -27.43)"/><path class="cls-3" d="M425.7,54.11a24.1,24.1,0,0,1-2.51-5.69c1.33,1.58,2.64,3.11,4,4.61l-1.49,1.16Z" transform="translate(-42.26 -27.43)"/><path class="cls-1" d="M684.63,254a43.65,43.65,0,0,1,16,36.22c-1.19,23.74-11.87,29.82-5.93,40.92s-8.9,25.56-8.9,25.56l-14.16,9.9" transform="translate(-42.26 -27.43)"/><path class="cls-1" d="M694.36,317.31a23.87,23.87,0,0,1-8,11.26c-4.26,3.25-12.21,6.78-15.34,3.68-.36-.36-2.2-2.35-.66-8" transform="translate(-42.26 -27.43)"/><path class="cls-1" d="M668.82,328.08c-1.08,1.55-9.48,14-4.53,27.6a27.18,27.18,0,0,0,7.37,10.89,36.79,36.79,0,0,1-23,4.56" transform="translate(-42.26 -27.43)"/><path class="cls-1" d="M689.41,352.56a22.23,22.23,0,0,0,0,14.41c1.25,3.23,3,4.92,3.79,9.09a21.37,21.37,0,0,1-.4,8.72C690.26,395.92,678,403.91,676.4,405" transform="translate(-42.26 -27.43)"/><path class="cls-2" d="M689.58,291.25s-2.28,8.05-4.7,8.56,0,12.68,5.49,3.8,1.9-20.3,1.9-20.3l-2.48-3.62s-3.57,17-7.11,17.61-2.89,11.4-.65,11.75,5.52,2.51,8.42,0,12.1-12.49,0-36.19l-1.59-2.36s-1.67,9-3.43,10.73-1.69,1.15-1.69,1.15" transform="translate(-42.26 -27.43)"/><path class="cls-2" d="M676.67,299.6s-3.8,7.73,1.1,20.88c0,0,5.68,6,12.74-3.07a110.07,110.07,0,0,0,7.16-9.76" transform="translate(-42.26 -27.43)"/><path class="cls-2" d="M683.38,267.94l2.8-9.15s10.62,9.49,11.49,14.07" transform="translate(-42.26 -27.43)"/><path class="cls-2" d="M673.77,350.46a14.6,14.6,0,0,1-2.94-7.81,14.76,14.76,0,0,0,12.64-.79c-2.23,8.05-5.69,13.29-8.55,13.06s-4.95-6.68-5.4-8.18a21.73,21.73,0,0,1-.8-9,11.79,11.79,0,0,0,5.69,3.34c4.82,1.14,10.16-1.14,13.8-5.7-3,14.43-8.13,24.32-12.81,24.13-4.29-.15-9-8.79-9.18-16.61a21.52,21.52,0,0,1,1.71-8.71,13.41,13.41,0,0,0,7.22,3.64c5.69.78,11.83-2.73,15.32-8.92a16.18,16.18,0,0,1,1.89,6.47c.19,2.47-.22,5.53-5.85,16.18-1.14,2.12-2.58,4.76-4.33,7.74" transform="translate(-42.26 -27.43)"/><path class="cls-2" d="M654.92,361.3l2.5-7.25a10.3,10.3,0,0,0,2.5,7.95,8.34,8.34,0,0,0,2.13,1.54,21,21,0,0,1-5.56,1h-5a35.3,35.3,0,0,1,1.61-6,37.52,37.52,0,0,1,6.8-11.68,18.8,18.8,0,0,0,.86,10,18.5,18.5,0,0,0,6,8.19,69.12,69.12,0,0,1-8.7,2.5c-6.75,1.48-8.16.72-8.84.13a6.17,6.17,0,0,1-1.57-4.47,12.73,12.73,0,0,1,2.29-8" transform="translate(-42.26 -27.43)"/><path class="cls-2" d="M671.93,381.34a24.87,24.87,0,0,0,6-3.95,24.49,24.49,0,0,0,2.77-2.9,12.43,12.43,0,0,0,.53,2.24c.7,2.41,1.33,3.11,1.71,4.88a7.08,7.08,0,0,1,.13,3.57,6.7,6.7,0,0,1-5.27,4.34c-3.33.57-6.14-1.89-9.08-4.34a27.73,27.73,0,0,1-5-5.7,24.07,24.07,0,0,0,18.31-9.64,40,40,0,0,0,1.44,4c1.73,4,2.56,4.11,3,6.2a11.57,11.57,0,0,1-1.89,8.53,11.08,11.08,0,0,1-3,2.94c-9.9,5.69-22.15-10.82-23.74-13.86a32.68,32.68,0,0,0,11.24-2.09,33.59,33.59,0,0,0,14.32-10.44,26.37,26.37,0,0,0,1.19,4.1c1.78,4.65,3.7,5.47,4.87,8.3,1.9,4.56.27,10.27-2.48,13.87a15.64,15.64,0,0,1-7.58,5.26c-19.38,6.08-28.73-21.77-28.73-21.77a54.43,54.43,0,0,0,15.87-3.15,55.69,55.69,0,0,0,19.57-12.15,19.66,19.66,0,0,0,.4,6.07,22,22,0,0,0,2.75,6.55c1.3,2.21,1.76,2.24,2.52,3.8a13.21,13.21,0,0,1,1.23,7.35" transform="translate(-42.26 -27.43)"/><path class="cls-3" d="M645.4,359.55A31.65,31.65,0,0,1,648,384.42a29.52,29.52,0,0,0-6.12-22.52l3.56-2.37Z" transform="translate(-42.26 -27.43)"/><path class="cls-7" d="M389.16,386.32s.15,60.13.15,62.41,7.45,4.12,7.45,4.12A108.93,108.93,0,0,0,415,455s13.15.41,20.85-2.32c1.9-.7,3.79-1.54,3.79-1.54l1.63-.76,1.42-.7a12.73,12.73,0,0,0,2-1.38c0-.92.16-2.49.19-5s0-4.8,0-6.11a13.77,13.77,0,0,0,2.79.17,14.76,14.76,0,0,0,6.2-1.69A26.06,26.06,0,0,0,465.43,419a26.65,26.65,0,0,0,0-12.05,22.09,22.09,0,0,0-4.91-9.7,16.36,16.36,0,0,0-3.31-3,17.28,17.28,0,0,0-12.65-2l-.15-6.42a55.93,55.93,0,0,1-5.69,1.77,61.53,61.53,0,0,1-11.37,1.67,132,132,0,0,1-14.62,0A105.08,105.08,0,0,1,398,388.23,76.63,76.63,0,0,1,389.16,386.32Z" transform="translate(-42.26 -27.43)"/><path class="cls-7" d="M389.1,386.07c1.27-.42,3-.93,5.08-1.43a76.65,76.65,0,0,1,9.39-1.57c3.92-.46,6.88-.59,10-.72s3.79,0,10.26-.15c.72,0,13.1-.14,18.48,1.89.57.23,2.26.88,2.18,1.43s-.56.47-.91.57" transform="translate(-42.26 -27.43)"/><path class="cls-7" d="M444.58,392.28q-.12,15.66,0,31.34c0,4.61.11,9.22.21,13.84" transform="translate(-42.26 -27.43)"/><path class="cls-7" d="M444.73,431.34a8.44,8.44,0,0,0,.59.78,6.75,6.75,0,0,0,3,1.9,7.72,7.72,0,0,0,8.23-2.37" transform="translate(-42.26 -27.43)"/><path class="cls-7" d="M444.58,401.5a14.94,14.94,0,0,1,7-4.82,5.85,5.85,0,0,1,5.92,2.24,22.13,22.13,0,0,1,1.89,2.73" transform="translate(-42.26 -27.43)"/><path class="cls-7" d="M446.57,433.32a16.9,16.9,0,0,0,5-1.58,18.21,18.21,0,0,0,3.79-2.66,20.34,20.34,0,0,0,5.45-11.65,21.8,21.8,0,0,0-9.33-20.66" transform="translate(-42.26 -27.43)"/><path class="cls-7" d="M394.49,386c3.88-.7,7.26-1.14,9.89-1.44,3.93-.44,6.87-.61,10-.8s5.69-.34,9.22-.34c2.09,0,3.92,0,7.58.23a47.43,47.43,0,0,1,5.37.53c3.79.57,4.08,1,4.08,1.21s-.37.48-.67.61c-5.08,2.47-15.72,2.34-15.72,2.34-6.06,0-5.3.13-10.08,0-4.23-.12-7.79-.38-10.39-.59" transform="translate(-42.26 -27.43)"/><rect class="cls-8" x="356.95" y="371.51" width="42.26" height="51.14"/></svg>